<?xml version="1.0" encoding="UTF-8" standalone="no"?>
<!-- Created with Inkscape (http://www.inkscape.org/) -->

<svg
   xmlns:dc="http://purl.org/dc/elements/1.1/"
   xmlns:cc="http://creativecommons.org/ns#"
   xmlns:rdf="http://www.w3.org/1999/02/22-rdf-syntax-ns#"
   xmlns:svg="http://www.w3.org/2000/svg"
   xmlns="http://www.w3.org/2000/svg"
   xmlns:xlink="http://www.w3.org/1999/xlink"
   xmlns:sodipodi="http://sodipodi.sourceforge.net/DTD/sodipodi-0.dtd"
   xmlns:inkscape="http://www.inkscape.org/namespaces/inkscape"
   width="400"
   height="400"
   id="svg2"
   version="1.1"
   inkscape:version="0.48.2 r9819"
   sodipodi:docname="toolbox.svg">
  <title
     id="title3032">Toolbox Icon</title>
  <defs
     id="defs4">
    <linearGradient
       id="linearGradient4382">
      <stop
         id="stop4384"
         offset="0"
         style="stop-color:#000000;stop-opacity:1;" />
      <stop
         id="stop4386"
         offset="1"
         style="stop-color:#797979;stop-opacity:1;" />
    </linearGradient>
    <linearGradient
       id="linearGradient4102">
      <stop
         id="stop4104"
         offset="0"
         style="stop-color:#ffffff;stop-opacity:1;" />
      <stop
         style="stop-color:#dadada;stop-opacity:1;"
         offset="0.83333331"
         id="stop4106" />
      <stop
         id="stop4108"
         offset="1"
         style="stop-color:#b5b5b5;stop-opacity:1;" />
    </linearGradient>
    <linearGradient
       id="linearGradient4084">
      <stop
         style="stop-color:#ffffff;stop-opacity:1;"
         offset="0"
         id="stop4086" />
      <stop
         id="stop4092"
         offset="0.80555558"
         style="stop-color:#dadada;stop-opacity:1;" />
      <stop
         style="stop-color:#b5b5b5;stop-opacity:1;"
         offset="1"
         id="stop4088" />
    </linearGradient>
    <linearGradient
       id="linearGradient3876">
      <stop
         style="stop-color:#b7db00;stop-opacity:1;"
         offset="0"
         id="stop3878" />
      <stop
         style="stop-color:#66a800;stop-opacity:1;"
         offset="1"
         id="stop3880" />
    </linearGradient>
    <linearGradient
       inkscape:collect="always"
       xlink:href="#linearGradient3876-7"
       id="linearGradient3882-1"
       x1="425"
       y1="383.79077"
       x2="424.28574"
       y2="451.64792"
       gradientUnits="userSpaceOnUse"
       gradientTransform="matrix(1.54,0,0,1.54,-418.78571,-251.47557)" />
    <linearGradient
       id="linearGradient3876-7">
      <stop
         style="stop-color:#b7db00;stop-opacity:1;"
         offset="0"
         id="stop3878-1" />
      <stop
         style="stop-color:#66a800;stop-opacity:1;"
         offset="1"
         id="stop3880-1" />
    </linearGradient>
    <linearGradient
       inkscape:collect="always"
       xlink:href="#linearGradient4084-5"
       id="linearGradient4090-4"
       x1="430"
       y1="362.36218"
       x2="430"
       y2="432.36218"
       gradientUnits="userSpaceOnUse" />
    <linearGradient
       id="linearGradient4084-5">
      <stop
         style="stop-color:#ffffff;stop-opacity:1;"
         offset="0"
         id="stop4086-8" />
      <stop
         id="stop4092-8"
         offset="0.80555558"
         style="stop-color:#dadada;stop-opacity:1;" />
      <stop
         style="stop-color:#b5b5b5;stop-opacity:1;"
         offset="1"
         id="stop4088-1" />
    </linearGradient>
    <linearGradient
       inkscape:collect="always"
       xlink:href="#linearGradient4102-4"
       id="linearGradient4166-1"
       gradientUnits="userSpaceOnUse"
       x1="230"
       y1="362.36218"
       x2="230"
       y2="422.36218"
       gradientTransform="matrix(1.8075736,0,0,1.7827726,213.08401,-349.0778)" />
    <linearGradient
       id="linearGradient4102-4">
      <stop
         id="stop4104-9"
         offset="0"
         style="stop-color:#ffffff;stop-opacity:1;" />
      <stop
         style="stop-color:#dadada;stop-opacity:1;"
         offset="0.83333331"
         id="stop4106-8" />
      <stop
         id="stop4108-2"
         offset="1"
         style="stop-color:#b5b5b5;stop-opacity:1;" />
    </linearGradient>
    <linearGradient
       inkscape:collect="always"
       xlink:href="#linearGradient3876-7"
       id="linearGradient4258"
       gradientUnits="userSpaceOnUse"
       gradientTransform="matrix(5.6000002,0,0,5.6000002,-1920,-2088.866)"
       x1="425"
       y1="383.79077"
       x2="424.28574"
       y2="451.64792" />
    <linearGradient
       inkscape:collect="always"
       xlink:href="#linearGradient4084"
       id="linearGradient4264"
       gradientUnits="userSpaceOnUse"
       gradientTransform="matrix(3.6363638,0,0,3.6363638,-1124.4156,-1174.4093)"
       x1="430"
       y1="362.36218"
       x2="430"
       y2="432.36218" />
    <linearGradient
       inkscape:collect="always"
       xlink:href="#linearGradient3876"
       id="linearGradient4272"
       gradientUnits="userSpaceOnUse"
       gradientTransform="matrix(5.6779042,0,0,5.6000001,-1462.4972,-2108.9233)"
       x1="425"
       y1="383.79077"
       x2="424.28574"
       y2="451.64792" />
    <linearGradient
       inkscape:collect="always"
       xlink:href="#linearGradient4102"
       id="linearGradient4274"
       gradientUnits="userSpaceOnUse"
       gradientTransform="matrix(3.6363636,0,0,3.5864705,90.686994,-1172.1464)"
       x1="230"
       y1="362.36218"
       x2="230"
       y2="422.36218" />
    <linearGradient
       inkscape:collect="always"
       xlink:href="#linearGradient4382"
       id="linearGradient4346"
       gradientUnits="userSpaceOnUse"
       gradientTransform="matrix(5.6000002,0,0,5.6000002,-1920,-2088.866)"
       x1="425"
       y1="383.79077"
       x2="424.28574"
       y2="451.64792" />
    <linearGradient
       inkscape:collect="always"
       xlink:href="#linearGradient3876-7-2"
       id="linearGradient4346-5"
       gradientUnits="userSpaceOnUse"
       gradientTransform="matrix(5.6000002,0,0,5.6000002,-1920,-2088.866)"
       x1="425"
       y1="383.79077"
       x2="424.28574"
       y2="451.64792" />
    <linearGradient
       id="linearGradient3876-7-2">
      <stop
         style="stop-color:#b7db00;stop-opacity:1;"
         offset="0"
         id="stop3878-1-9" />
      <stop
         style="stop-color:#66a800;stop-opacity:1;"
         offset="1"
         id="stop3880-1-9" />
    </linearGradient>
    <linearGradient
       y2="451.64792"
       x2="424.28574"
       y1="383.79077"
       x1="425"
       gradientTransform="matrix(5.6000002,0,0,5.6000002,-1360,-2088.866)"
       gradientUnits="userSpaceOnUse"
       id="linearGradient4363"
       xlink:href="#linearGradient3876-7-2"
       inkscape:collect="always" />
    <linearGradient
       inkscape:collect="always"
       xlink:href="#linearGradient3876"
       id="linearGradient4408"
       gradientUnits="userSpaceOnUse"
       gradientTransform="matrix(5.6779042,0,0,5.6000001,-1973.9258,-1651.7804)"
       x1="425"
       y1="383.79077"
       x2="424.28574"
       y2="451.64792" />
    <linearGradient
       inkscape:collect="always"
       xlink:href="#linearGradient4382-3"
       id="linearGradient4346-2"
       gradientUnits="userSpaceOnUse"
       gradientTransform="matrix(5.6000002,0,0,5.6000002,-1920,-2088.866)"
       x1="425"
       y1="383.79077"
       x2="424.28574"
       y2="451.64792" />
    <linearGradient
       id="linearGradient4382-3">
      <stop
         id="stop4384-8"
         offset="0"
         style="stop-color:#000000;stop-opacity:1;" />
      <stop
         id="stop4386-2"
         offset="1"
         style="stop-color:#797979;stop-opacity:1;" />
    </linearGradient>
    <linearGradient
       y2="451.64792"
       x2="424.28574"
       y1="383.79077"
       x1="425"
       gradientTransform="matrix(5.6000002,0,0,5.6000002,-1942,-1650.866)"
       gradientUnits="userSpaceOnUse"
       id="linearGradient4425"
       xlink:href="#linearGradient4382-3"
       inkscape:collect="always" />
    <linearGradient
       inkscape:collect="always"
       xlink:href="#linearGradient4102"
       id="linearGradient4444"
       gradientUnits="userSpaceOnUse"
       gradientTransform="matrix(3.6363636,0,0,3.5864705,90.686994,-1172.1464)"
       x1="230"
       y1="362.36218"
       x2="230"
       y2="422.36218" />
  </defs>
  <sodipodi:namedview
     id="base"
     pagecolor="#ffffff"
     bordercolor="#666666"
     borderopacity="1.0"
     inkscape:pageopacity="0.0"
     inkscape:pageshadow="2"
     inkscape:zoom="0.35"
     inkscape:cx="-46.99034"
     inkscape:cy="554.13088"
     inkscape:document-units="px"
     inkscape:current-layer="layer1"
     showgrid="false"
     inkscape:snap-page="false"
     inkscape:window-width="1280"
     inkscape:window-height="647"
     inkscape:window-x="-4"
     inkscape:window-y="-4"
     inkscape:window-maximized="1"
     fit-margin-top="0"
     fit-margin-left="0"
     fit-margin-right="0"
     fit-margin-bottom="0">
    <inkscape:grid
       type="xygrid"
       id="grid3823"
       empspacing="5"
       visible="true"
       enabled="true"
       snapvisiblegridlinesonly="true" />
  </sodipodi:namedview>
  <metadata
     id="metadata7">
    <rdf:RDF>
      <cc:Work
         rdf:about="">
        <dc:format>image/svg+xml</dc:format>
        <dc:type
           rdf:resource="http://purl.org/dc/dcmitype/StillImage" />
        <dc:title>Toolbox Icon</dc:title>
        <cc:license
           rdf:resource="http://creativecommons.org/licenses/publicdomain/" />
        <dc:creator>
          <cc:Agent>
            <dc:title>Benjamin Pavie</dc:title>
          </cc:Agent>
        </dc:creator>
        <dc:subject>
          <rdf:Bag>
            <rdf:li>Toolbox</rdf:li>
            <rdf:li>icon</rdf:li>
          </rdf:Bag>
        </dc:subject>
      </cc:Work>
      <cc:License
         rdf:about="http://creativecommons.org/licenses/publicdomain/">
        <cc:permits
           rdf:resource="http://creativecommons.org/ns#Reproduction" />
        <cc:permits
           rdf:resource="http://creativecommons.org/ns#Distribution" />
        <cc:permits
           rdf:resource="http://creativecommons.org/ns#DerivativeWorks" />
      </cc:License>
    </rdf:RDF>
  </metadata>
  <g
     inkscape:label="Layer 1"
     inkscape:groupmode="layer"
     id="layer1"
     transform="translate(-238,-490.36218)">
    <rect
       style="fill:url(#linearGradient4425);fill-opacity:1;stroke:none"
       id="rect3874-5-6"
       width="400"
       height="400"
       x="238"
       y="490.36218"
       ry="36.842834"
       rx="46.753246"
       inkscape:export-filename="E:\toolbox_icon.png"
       inkscape:export-xdpi="90"
       inkscape:export-ydpi="90" />
    <g
       id="g4241"
       transform="translate(-505.93404,451.29803)">
      <path
         inkscape:connector-curvature="0"
         id="rect3007-4"
         d="m 984.10618,139.9483 -73.00157,0.15631 c -17.29819,-0.11045 -20.34372,14.34781 -27.45495,24.9652 -6.90338,0.0521 -8.33167,-0.0519 -15.23509,0 l 0,15.02607 -68.558,-0.23457 0,45.31302 73.63637,0 0,-20.03477 25.39185,0 0,20.03477 101.56741,0 0,-20.03477 25.3918,0 0,20.03477 68.558,0 0,-45.07823 -63.4796,0 0,-15.02611 -20.3135,0 c -4.9839,-10.75151 -15.2352,-25.07566 -26.50272,-25.12171 z m -67.52645,16.5913 61.73393,0.62609 16.34599,13.93042 -94.10854,0.15631 16.02862,-14.71302 z m 89.10957,53.45211 c -0.1203,0 -0.2379,0.11627 -0.2379,0.23456 l 0,39.75648 c 0,0.1187 0.1179,0.23457 0.2379,0.23457 l 14.8383,0 c 0.1203,0 0.2378,-0.11587 0.2378,-0.23457 l 0,-39.75648 c 0,-0.11869 -0.1178,-0.23456 -0.2378,-0.23456 l -14.8383,0 z m -127.11801,0.15671 0,40.06953 15.23513,0 0,-40.06953 -15.23513,0 z m -71.09716,25.04344 0,105.18252 281.84947,0 0,-105.18252 -63.4796,0 0,20.03477 -25.3918,0 0,-20.03477 -101.56741,0 0,20.03477 -25.39185,0 0,-20.03477 -66.01881,0 z"
         style="fill:#000000;fill-opacity:1;fill-rule:evenodd;stroke:none" />
      <path
         inkscape:connector-curvature="0"
         id="rect3007"
         d="m 980.0827,135.92482 -73.00157,0.15631 c -17.29818,-0.11044 -20.34371,14.34782 -27.45494,24.9652 -6.90338,0.0521 -8.33168,-0.0519 -15.23509,0 l 0,15.02607 -68.55801,-0.23456 0,45.31301 73.63638,0 0,-20.03477 25.39185,0 0,20.03477 101.56737,0 0,-20.03477 25.39181,0 0,20.03477 68.558,0 0,-45.07823 -63.4796,0 0,-15.02611 -20.3134,0 c -4.984,-10.7515 -15.23528,-25.07566 -26.5028,-25.12171 z m -67.52644,16.5913 61.73392,0.6261 16.34599,13.93041 -94.10853,0.15632 16.02862,-14.71303 z m 89.10954,53.45211 c -0.1203,0 -0.2378,0.11628 -0.2378,0.23457 l 0,39.75648 c 0,0.11869 0.1178,0.23457 0.2378,0.23457 l 14.8383,0 c 0.1203,0 0.2379,-0.11588 0.2379,-0.23457 l 0,-39.75648 c 0,-0.11869 -0.1179,-0.23457 -0.2379,-0.23457 l -14.8383,0 z m -127.11798,0.15672 0,40.06952 15.23513,0 0,-40.06952 -15.23513,0 z m -71.09716,25.04343 0,105.18253 281.84954,0 0,-105.18253 -63.4797,0 0,20.03477 -25.39181,0 0,-20.03477 -101.56737,0 0,20.03477 -25.39185,0 0,-20.03477 -66.01881,0 z"
         style="fill:url(#linearGradient4444);fill-opacity:1;fill-rule:evenodd;stroke:none" />
    </g>
  </g>
</svg>
